<mxfile host="app.diagrams.net" modified="2024-06-07T05:41:17.914Z" agent="Mozilla/5.0 (Windows NT 10.0; Win64; x64) AppleWebKit/537.36 (KHTML, like Gecko) Chrome/125.0.0.0 Safari/537.36" etag="mwg4z6SsWGMp2Z9THumD" version="24.4.13" type="github" pages="8">
  <diagram name="Page-1" id="6xIiYGoTjCuVvD2a-SyQ">
    <mxGraphModel dx="2044" dy="626" grid="1" gridSize="10" guides="1" tooltips="1" connect="1" arrows="1" fold="1" page="1" pageScale="1" pageWidth="850" pageHeight="1100" math="0" shadow="0">
      <root>
        <mxCell id="0" />
        <mxCell id="1" parent="0" />
        <mxCell id="7E1NDjSyqP2fOPKttYHi-2" value="" style="sketch=0;points=[[0,0,0],[0.25,0,0],[0.5,0,0],[0.75,0,0],[1,0,0],[0,1,0],[0.25,1,0],[0.5,1,0],[0.75,1,0],[1,1,0],[0,0.25,0],[0,0.5,0],[0,0.75,0],[1,0.25,0],[1,0.5,0],[1,0.75,0]];outlineConnect=0;fontColor=#232F3E;fillColor=#C925D1;strokeColor=#ffffff;dashed=0;verticalLabelPosition=bottom;verticalAlign=top;align=center;html=1;fontSize=12;fontStyle=0;aspect=fixed;shape=mxgraph.aws4.resourceIcon;resIcon=mxgraph.aws4.dynamodb;" parent="1" vertex="1">
          <mxGeometry x="680" y="620" width="78" height="78" as="geometry" />
        </mxCell>
        <mxCell id="7E1NDjSyqP2fOPKttYHi-3" value="" style="sketch=0;points=[[0,0,0],[0.25,0,0],[0.5,0,0],[0.75,0,0],[1,0,0],[0,1,0],[0.25,1,0],[0.5,1,0],[0.75,1,0],[1,1,0],[0,0.25,0],[0,0.5,0],[0,0.75,0],[1,0.25,0],[1,0.5,0],[1,0.75,0]];outlineConnect=0;fontColor=#232F3E;fillColor=#C925D1;strokeColor=#ffffff;dashed=0;verticalLabelPosition=bottom;verticalAlign=top;align=center;html=1;fontSize=12;fontStyle=0;aspect=fixed;shape=mxgraph.aws4.resourceIcon;resIcon=mxgraph.aws4.dynamodb;" parent="1" vertex="1">
          <mxGeometry x="690" y="720" width="78" height="78" as="geometry" />
        </mxCell>
        <mxCell id="7E1NDjSyqP2fOPKttYHi-4" value="" style="sketch=0;points=[[0,0,0],[0.25,0,0],[0.5,0,0],[0.75,0,0],[1,0,0],[0,1,0],[0.25,1,0],[0.5,1,0],[0.75,1,0],[1,1,0],[0,0.25,0],[0,0.5,0],[0,0.75,0],[1,0.25,0],[1,0.5,0],[1,0.75,0]];outlineConnect=0;fontColor=#232F3E;fillColor=#C925D1;strokeColor=#ffffff;dashed=0;verticalLabelPosition=bottom;verticalAlign=top;align=center;html=1;fontSize=12;fontStyle=0;aspect=fixed;shape=mxgraph.aws4.resourceIcon;resIcon=mxgraph.aws4.dynamodb;" parent="1" vertex="1">
          <mxGeometry x="670" y="300" width="78" height="78" as="geometry" />
        </mxCell>
        <mxCell id="7E1NDjSyqP2fOPKttYHi-5" value="" style="sketch=0;points=[[0,0,0],[0.25,0,0],[0.5,0,0],[0.75,0,0],[1,0,0],[0,1,0],[0.25,1,0],[0.5,1,0],[0.75,1,0],[1,1,0],[0,0.25,0],[0,0.5,0],[0,0.75,0],[1,0.25,0],[1,0.5,0],[1,0.75,0]];outlineConnect=0;fontColor=#232F3E;fillColor=#C925D1;strokeColor=#ffffff;dashed=0;verticalLabelPosition=bottom;verticalAlign=top;align=center;html=1;fontSize=12;fontStyle=0;aspect=fixed;shape=mxgraph.aws4.resourceIcon;resIcon=mxgraph.aws4.dynamodb;" parent="1" vertex="1">
          <mxGeometry x="670" y="410" width="78" height="78" as="geometry" />
        </mxCell>
        <mxCell id="7E1NDjSyqP2fOPKttYHi-6" value="" style="sketch=0;points=[[0,0,0],[0.25,0,0],[0.5,0,0],[0.75,0,0],[1,0,0],[0,1,0],[0.25,1,0],[0.5,1,0],[0.75,1,0],[1,1,0],[0,0.25,0],[0,0.5,0],[0,0.75,0],[1,0.25,0],[1,0.5,0],[1,0.75,0]];outlineConnect=0;fontColor=#232F3E;fillColor=#C925D1;strokeColor=#ffffff;dashed=0;verticalLabelPosition=bottom;verticalAlign=top;align=center;html=1;fontSize=12;fontStyle=0;aspect=fixed;shape=mxgraph.aws4.resourceIcon;resIcon=mxgraph.aws4.dynamodb;" parent="1" vertex="1">
          <mxGeometry x="680" y="500" width="78" height="78" as="geometry" />
        </mxCell>
        <mxCell id="7E1NDjSyqP2fOPKttYHi-29" value="" style="edgeStyle=orthogonalEdgeStyle;rounded=0;orthogonalLoop=1;jettySize=auto;html=1;" parent="1" source="7E1NDjSyqP2fOPKttYHi-7" target="7E1NDjSyqP2fOPKttYHi-3" edge="1">
          <mxGeometry relative="1" as="geometry" />
        </mxCell>
        <mxCell id="7E1NDjSyqP2fOPKttYHi-7" value="" style="outlineConnect=0;dashed=0;verticalLabelPosition=bottom;verticalAlign=top;align=center;html=1;shape=mxgraph.aws3.lambda_function;fillColor=#F58534;gradientColor=none;" parent="1" vertex="1">
          <mxGeometry x="530" y="723" width="69" height="72" as="geometry" />
        </mxCell>
        <mxCell id="7E1NDjSyqP2fOPKttYHi-25" value="" style="edgeStyle=orthogonalEdgeStyle;rounded=0;orthogonalLoop=1;jettySize=auto;html=1;" parent="1" source="7E1NDjSyqP2fOPKttYHi-9" target="7E1NDjSyqP2fOPKttYHi-4" edge="1">
          <mxGeometry relative="1" as="geometry" />
        </mxCell>
        <mxCell id="7E1NDjSyqP2fOPKttYHi-9" value="" style="outlineConnect=0;dashed=0;verticalLabelPosition=bottom;verticalAlign=top;align=center;html=1;shape=mxgraph.aws3.lambda_function;fillColor=#F58534;gradientColor=none;" parent="1" vertex="1">
          <mxGeometry x="510" y="303" width="69" height="72" as="geometry" />
        </mxCell>
        <mxCell id="7E1NDjSyqP2fOPKttYHi-26" value="" style="edgeStyle=orthogonalEdgeStyle;rounded=0;orthogonalLoop=1;jettySize=auto;html=1;" parent="1" source="7E1NDjSyqP2fOPKttYHi-10" target="7E1NDjSyqP2fOPKttYHi-5" edge="1">
          <mxGeometry relative="1" as="geometry" />
        </mxCell>
        <mxCell id="7E1NDjSyqP2fOPKttYHi-10" value="" style="outlineConnect=0;dashed=0;verticalLabelPosition=bottom;verticalAlign=top;align=center;html=1;shape=mxgraph.aws3.lambda_function;fillColor=#F58534;gradientColor=none;" parent="1" vertex="1">
          <mxGeometry x="510" y="413" width="69" height="72" as="geometry" />
        </mxCell>
        <mxCell id="7E1NDjSyqP2fOPKttYHi-27" value="" style="edgeStyle=orthogonalEdgeStyle;rounded=0;orthogonalLoop=1;jettySize=auto;html=1;" parent="1" source="7E1NDjSyqP2fOPKttYHi-11" target="7E1NDjSyqP2fOPKttYHi-6" edge="1">
          <mxGeometry relative="1" as="geometry" />
        </mxCell>
        <mxCell id="7E1NDjSyqP2fOPKttYHi-11" value="" style="outlineConnect=0;dashed=0;verticalLabelPosition=bottom;verticalAlign=top;align=center;html=1;shape=mxgraph.aws3.lambda_function;fillColor=#F58534;gradientColor=none;" parent="1" vertex="1">
          <mxGeometry x="520" y="503" width="69" height="72" as="geometry" />
        </mxCell>
        <mxCell id="7E1NDjSyqP2fOPKttYHi-28" value="" style="edgeStyle=orthogonalEdgeStyle;rounded=0;orthogonalLoop=1;jettySize=auto;html=1;" parent="1" source="7E1NDjSyqP2fOPKttYHi-12" target="7E1NDjSyqP2fOPKttYHi-2" edge="1">
          <mxGeometry relative="1" as="geometry" />
        </mxCell>
        <mxCell id="7E1NDjSyqP2fOPKttYHi-12" value="" style="outlineConnect=0;dashed=0;verticalLabelPosition=bottom;verticalAlign=top;align=center;html=1;shape=mxgraph.aws3.lambda_function;fillColor=#F58534;gradientColor=none;" parent="1" vertex="1">
          <mxGeometry x="520" y="623" width="69" height="72" as="geometry" />
        </mxCell>
        <mxCell id="7E1NDjSyqP2fOPKttYHi-22" value="" style="edgeStyle=orthogonalEdgeStyle;rounded=0;orthogonalLoop=1;jettySize=auto;html=1;" parent="1" source="7E1NDjSyqP2fOPKttYHi-37" target="7E1NDjSyqP2fOPKttYHi-14" edge="1">
          <mxGeometry relative="1" as="geometry" />
        </mxCell>
        <mxCell id="7E1NDjSyqP2fOPKttYHi-13" value="" style="sketch=0;points=[[0,0,0],[0.25,0,0],[0.5,0,0],[0.75,0,0],[1,0,0],[0,1,0],[0.25,1,0],[0.5,1,0],[0.75,1,0],[1,1,0],[0,0.25,0],[0,0.5,0],[0,0.75,0],[1,0.25,0],[1,0.5,0],[1,0.75,0]];outlineConnect=0;fontColor=#232F3E;fillColor=#E7157B;strokeColor=#ffffff;dashed=0;verticalLabelPosition=bottom;verticalAlign=top;align=center;html=1;fontSize=12;fontStyle=0;aspect=fixed;shape=mxgraph.aws4.resourceIcon;resIcon=mxgraph.aws4.api_gateway;" parent="1" vertex="1">
          <mxGeometry x="180" y="511" width="78" height="78" as="geometry" />
        </mxCell>
        <mxCell id="7E1NDjSyqP2fOPKttYHi-21" value="" style="edgeStyle=orthogonalEdgeStyle;rounded=0;orthogonalLoop=1;jettySize=auto;html=1;" parent="1" source="7E1NDjSyqP2fOPKttYHi-14" target="7E1NDjSyqP2fOPKttYHi-17" edge="1">
          <mxGeometry relative="1" as="geometry" />
        </mxCell>
        <mxCell id="7E1NDjSyqP2fOPKttYHi-14" value="" style="sketch=0;points=[[0,0,0],[0.25,0,0],[0.5,0,0],[0.75,0,0],[1,0,0],[0,1,0],[0.25,1,0],[0.5,1,0],[0.75,1,0],[1,1,0],[0,0.25,0],[0,0.5,0],[0,0.75,0],[1,0.25,0],[1,0.5,0],[1,0.75,0]];outlineConnect=0;fontColor=#232F3E;fillColor=#8C4FFF;strokeColor=#ffffff;dashed=0;verticalLabelPosition=bottom;verticalAlign=top;align=center;html=1;fontSize=12;fontStyle=0;aspect=fixed;shape=mxgraph.aws4.resourceIcon;resIcon=mxgraph.aws4.route_53;" parent="1" vertex="1">
          <mxGeometry x="-10" y="511" width="78" height="78" as="geometry" />
        </mxCell>
        <mxCell id="7E1NDjSyqP2fOPKttYHi-15" value="" style="sketch=0;points=[[0,0,0],[0.25,0,0],[0.5,0,0],[0.75,0,0],[1,0,0],[0,1,0],[0.25,1,0],[0.5,1,0],[0.75,1,0],[1,1,0],[0,0.25,0],[0,0.5,0],[0,0.75,0],[1,0.25,0],[1,0.5,0],[1,0.75,0]];outlineConnect=0;fontColor=#232F3E;fillColor=#8C4FFF;strokeColor=#ffffff;dashed=0;verticalLabelPosition=bottom;verticalAlign=top;align=center;html=1;fontSize=12;fontStyle=0;aspect=fixed;shape=mxgraph.aws4.resourceIcon;resIcon=mxgraph.aws4.cloudfront;" parent="1" vertex="1">
          <mxGeometry x="10" y="270" width="78" height="78" as="geometry" />
        </mxCell>
        <mxCell id="7E1NDjSyqP2fOPKttYHi-24" value="" style="edgeStyle=orthogonalEdgeStyle;rounded=0;orthogonalLoop=1;jettySize=auto;html=1;" parent="1" source="7E1NDjSyqP2fOPKttYHi-16" target="7E1NDjSyqP2fOPKttYHi-15" edge="1">
          <mxGeometry relative="1" as="geometry" />
        </mxCell>
        <mxCell id="7E1NDjSyqP2fOPKttYHi-16" value="" style="sketch=0;points=[[0,0,0],[0.25,0,0],[0.5,0,0],[0.75,0,0],[1,0,0],[0,1,0],[0.25,1,0],[0.5,1,0],[0.75,1,0],[1,1,0],[0,0.25,0],[0,0.5,0],[0,0.75,0],[1,0.25,0],[1,0.5,0],[1,0.75,0]];outlineConnect=0;fontColor=#232F3E;fillColor=#7AA116;strokeColor=#ffffff;dashed=0;verticalLabelPosition=bottom;verticalAlign=top;align=center;html=1;fontSize=12;fontStyle=0;aspect=fixed;shape=mxgraph.aws4.resourceIcon;resIcon=mxgraph.aws4.s3;" parent="1" vertex="1">
          <mxGeometry x="120" y="270" width="78" height="78" as="geometry" />
        </mxCell>
        <mxCell id="7E1NDjSyqP2fOPKttYHi-17" value="" style="sketch=0;outlineConnect=0;fontColor=#232F3E;gradientColor=none;fillColor=#232F3D;strokeColor=none;dashed=0;verticalLabelPosition=bottom;verticalAlign=top;align=center;html=1;fontSize=12;fontStyle=0;aspect=fixed;pointerEvents=1;shape=mxgraph.aws4.user;" parent="1" vertex="1">
          <mxGeometry x="-162" y="511" width="78" height="78" as="geometry" />
        </mxCell>
        <mxCell id="7E1NDjSyqP2fOPKttYHi-18" value="" style="verticalLabelPosition=bottom;html=1;verticalAlign=top;align=center;strokeColor=none;fillColor=#00BEF2;shape=mxgraph.azure.computer;pointerEvents=1;" parent="1" vertex="1">
          <mxGeometry x="-148" y="416" width="50" height="45" as="geometry" />
        </mxCell>
        <mxCell id="7E1NDjSyqP2fOPKttYHi-19" value="" style="html=1;verticalLabelPosition=bottom;align=center;labelBackgroundColor=#ffffff;verticalAlign=top;strokeWidth=2;strokeColor=#0080F0;shadow=0;dashed=0;shape=mxgraph.ios7.icons.smartphone;" parent="1" vertex="1">
          <mxGeometry x="-132" y="630" width="18" height="30" as="geometry" />
        </mxCell>
        <mxCell id="7E1NDjSyqP2fOPKttYHi-23" style="edgeStyle=orthogonalEdgeStyle;rounded=0;orthogonalLoop=1;jettySize=auto;html=1;entryX=0.25;entryY=1;entryDx=0;entryDy=0;entryPerimeter=0;" parent="1" source="7E1NDjSyqP2fOPKttYHi-14" target="7E1NDjSyqP2fOPKttYHi-15" edge="1">
          <mxGeometry relative="1" as="geometry" />
        </mxCell>
        <mxCell id="7E1NDjSyqP2fOPKttYHi-31" value="" style="edgeStyle=orthogonalEdgeStyle;rounded=0;orthogonalLoop=1;jettySize=auto;html=1;" parent="1" source="7E1NDjSyqP2fOPKttYHi-30" target="7E1NDjSyqP2fOPKttYHi-13" edge="1">
          <mxGeometry relative="1" as="geometry" />
        </mxCell>
        <mxCell id="7E1NDjSyqP2fOPKttYHi-30" value="" style="outlineConnect=0;dashed=0;verticalLabelPosition=bottom;verticalAlign=top;align=center;html=1;shape=mxgraph.aws3.classic_load_balancer;fillColor=#F58536;gradientColor=none;" parent="1" vertex="1">
          <mxGeometry x="280" y="514" width="69" height="72" as="geometry" />
        </mxCell>
        <mxCell id="7E1NDjSyqP2fOPKttYHi-32" style="edgeStyle=orthogonalEdgeStyle;rounded=0;orthogonalLoop=1;jettySize=auto;html=1;entryX=0;entryY=0.5;entryDx=0;entryDy=0;entryPerimeter=0;" parent="1" source="7E1NDjSyqP2fOPKttYHi-30" target="7E1NDjSyqP2fOPKttYHi-12" edge="1">
          <mxGeometry relative="1" as="geometry">
            <Array as="points">
              <mxPoint x="460" y="540" />
              <mxPoint x="460" y="659" />
            </Array>
          </mxGeometry>
        </mxCell>
        <mxCell id="7E1NDjSyqP2fOPKttYHi-33" style="edgeStyle=orthogonalEdgeStyle;rounded=0;orthogonalLoop=1;jettySize=auto;html=1;entryX=0;entryY=0.5;entryDx=0;entryDy=0;entryPerimeter=0;exitX=1;exitY=0.5;exitDx=0;exitDy=0;exitPerimeter=0;" parent="1" source="MUsXmNnjy5iEInWsH_zE-1" target="7E1NDjSyqP2fOPKttYHi-9" edge="1">
          <mxGeometry relative="1" as="geometry">
            <mxPoint x="359" y="560" as="sourcePoint" />
            <mxPoint x="530" y="560" as="targetPoint" />
          </mxGeometry>
        </mxCell>
        <mxCell id="7E1NDjSyqP2fOPKttYHi-35" style="edgeStyle=orthogonalEdgeStyle;rounded=0;orthogonalLoop=1;jettySize=auto;html=1;" parent="1" edge="1">
          <mxGeometry relative="1" as="geometry">
            <mxPoint x="344" y="550" as="sourcePoint" />
            <mxPoint x="525" y="759" as="targetPoint" />
            <Array as="points">
              <mxPoint x="344" y="570" />
              <mxPoint x="435" y="570" />
              <mxPoint x="435" y="759" />
            </Array>
          </mxGeometry>
        </mxCell>
        <mxCell id="7E1NDjSyqP2fOPKttYHi-36" style="edgeStyle=orthogonalEdgeStyle;rounded=0;orthogonalLoop=1;jettySize=auto;html=1;entryX=0;entryY=0.5;entryDx=0;entryDy=0;entryPerimeter=0;" parent="1" target="7E1NDjSyqP2fOPKttYHi-10" edge="1">
          <mxGeometry relative="1" as="geometry">
            <mxPoint x="354" y="560" as="sourcePoint" />
            <mxPoint x="535" y="769" as="targetPoint" />
            <Array as="points">
              <mxPoint x="350" y="560" />
              <mxPoint x="350" y="561" />
              <mxPoint x="445" y="561" />
              <mxPoint x="445" y="440" />
              <mxPoint x="510" y="440" />
            </Array>
          </mxGeometry>
        </mxCell>
        <mxCell id="7E1NDjSyqP2fOPKttYHi-38" value="" style="edgeStyle=orthogonalEdgeStyle;rounded=0;orthogonalLoop=1;jettySize=auto;html=1;" parent="1" source="7E1NDjSyqP2fOPKttYHi-13" target="7E1NDjSyqP2fOPKttYHi-37" edge="1">
          <mxGeometry relative="1" as="geometry">
            <mxPoint x="140" y="550" as="sourcePoint" />
            <mxPoint x="68" y="550" as="targetPoint" />
          </mxGeometry>
        </mxCell>
        <mxCell id="7E1NDjSyqP2fOPKttYHi-37" value="" style="sketch=0;points=[[0,0,0],[0.25,0,0],[0.5,0,0],[0.75,0,0],[1,0,0],[0,1,0],[0.25,1,0],[0.5,1,0],[0.75,1,0],[1,1,0],[0,0.25,0],[0,0.5,0],[0,0.75,0],[1,0.25,0],[1,0.5,0],[1,0.75,0]];outlineConnect=0;fontColor=#232F3E;fillColor=#DD344C;strokeColor=#ffffff;dashed=0;verticalLabelPosition=bottom;verticalAlign=top;align=center;html=1;fontSize=12;fontStyle=0;aspect=fixed;shape=mxgraph.aws4.resourceIcon;resIcon=mxgraph.aws4.waf;" parent="1" vertex="1">
          <mxGeometry x="80" y="511" width="78" height="78" as="geometry" />
        </mxCell>
        <mxCell id="7E1NDjSyqP2fOPKttYHi-40" value="" style="sketch=0;points=[[0,0,0],[0.25,0,0],[0.5,0,0],[0.75,0,0],[1,0,0],[0,1,0],[0.25,1,0],[0.5,1,0],[0.75,1,0],[1,1,0],[0,0.25,0],[0,0.5,0],[0,0.75,0],[1,0.25,0],[1,0.5,0],[1,0.75,0]];outlineConnect=0;fontColor=#232F3E;fillColor=#01A88D;strokeColor=#ffffff;dashed=0;verticalLabelPosition=bottom;verticalAlign=top;align=center;html=1;fontSize=12;fontStyle=0;aspect=fixed;shape=mxgraph.aws4.resourceIcon;resIcon=mxgraph.aws4.rekognition_2;" parent="1" vertex="1">
          <mxGeometry x="250" y="192" width="78" height="78" as="geometry" />
        </mxCell>
        <mxCell id="7E1NDjSyqP2fOPKttYHi-41" value="" style="sketch=0;points=[[0,0,0],[0.25,0,0],[0.5,0,0],[0.75,0,0],[1,0,0],[0,1,0],[0.25,1,0],[0.5,1,0],[0.75,1,0],[1,1,0],[0,0.25,0],[0,0.5,0],[0,0.75,0],[1,0.25,0],[1,0.5,0],[1,0.75,0]];outlineConnect=0;fontColor=#232F3E;fillColor=#01A88D;strokeColor=#ffffff;dashed=0;verticalLabelPosition=bottom;verticalAlign=top;align=center;html=1;fontSize=12;fontStyle=0;aspect=fixed;shape=mxgraph.aws4.resourceIcon;resIcon=mxgraph.aws4.fraud_detector;" parent="1" vertex="1">
          <mxGeometry x="349" y="192" width="78" height="78" as="geometry" />
        </mxCell>
        <mxCell id="7E1NDjSyqP2fOPKttYHi-42" value="KYC Photo Upload" style="text;strokeColor=none;align=center;fillColor=none;html=1;verticalAlign=middle;whiteSpace=wrap;rounded=0;" parent="1" vertex="1">
          <mxGeometry x="240" y="140" width="60" height="30" as="geometry" />
        </mxCell>
        <mxCell id="MUsXmNnjy5iEInWsH_zE-2" value="" style="edgeStyle=orthogonalEdgeStyle;rounded=0;orthogonalLoop=1;jettySize=auto;html=1;entryX=0;entryY=0.5;entryDx=0;entryDy=0;entryPerimeter=0;exitX=1;exitY=0.5;exitDx=0;exitDy=0;exitPerimeter=0;" edge="1" parent="1" source="7E1NDjSyqP2fOPKttYHi-30" target="MUsXmNnjy5iEInWsH_zE-1">
          <mxGeometry relative="1" as="geometry">
            <mxPoint x="349" y="550" as="sourcePoint" />
            <mxPoint x="510" y="339" as="targetPoint" />
          </mxGeometry>
        </mxCell>
        <mxCell id="MUsXmNnjy5iEInWsH_zE-1" value="" style="outlineConnect=0;dashed=0;verticalLabelPosition=bottom;verticalAlign=top;align=center;html=1;shape=mxgraph.aws3.lambda_function;fillColor=#F58534;gradientColor=none;" vertex="1" parent="1">
          <mxGeometry x="356" y="517" width="69" height="72" as="geometry" />
        </mxCell>
      </root>
    </mxGraphModel>
  </diagram>
  <diagram id="lWmuORwOzDZXLmm-SAmb" name="Page-2">
    <mxGraphModel dx="1222" dy="636" grid="1" gridSize="10" guides="1" tooltips="1" connect="1" arrows="1" fold="1" page="1" pageScale="1" pageWidth="850" pageHeight="1100" math="0" shadow="0">
      <root>
        <mxCell id="0" />
        <mxCell id="1" parent="0" />
        <mxCell id="nYArpauBM2YwA7hL8qmK-1" value="AWS Cloud" style="sketch=0;outlineConnect=0;gradientColor=none;html=1;whiteSpace=wrap;fontSize=12;fontStyle=0;shape=mxgraph.aws4.group;grIcon=mxgraph.aws4.group_aws_cloud;strokeColor=#AAB7B8;fillColor=none;verticalAlign=top;align=left;spacingLeft=30;fontColor=#AAB7B8;dashed=0;" vertex="1" parent="1">
          <mxGeometry x="20" y="20" width="810" height="1050" as="geometry" />
        </mxCell>
        <mxCell id="nYArpauBM2YwA7hL8qmK-2" value="Region" style="points=[[0,0],[0.25,0],[0.5,0],[0.75,0],[1,0],[1,0.25],[1,0.5],[1,0.75],[1,1],[0.75,1],[0.5,1],[0.25,1],[0,1],[0,0.75],[0,0.5],[0,0.25]];outlineConnect=0;gradientColor=none;html=1;whiteSpace=wrap;fontSize=12;fontStyle=0;container=1;pointerEvents=0;collapsible=0;recursiveResize=0;shape=mxgraph.aws4.group;grIcon=mxgraph.aws4.group_region;strokeColor=#00A4A6;fillColor=none;verticalAlign=top;align=left;spacingLeft=30;fontColor=#147EBA;dashed=1;" vertex="1" parent="1">
          <mxGeometry x="30" y="30" width="770" height="1079" as="geometry" />
        </mxCell>
        <mxCell id="nYArpauBM2YwA7hL8qmK-3" value="VPC" style="sketch=0;outlineConnect=0;gradientColor=none;html=1;whiteSpace=wrap;fontSize=12;fontStyle=0;shape=mxgraph.aws4.group;grIcon=mxgraph.aws4.group_vpc;strokeColor=#879196;fillColor=none;verticalAlign=top;align=left;spacingLeft=30;fontColor=#879196;dashed=0;" vertex="1" parent="nYArpauBM2YwA7hL8qmK-2">
          <mxGeometry x="20" y="36" width="750" height="929" as="geometry" />
        </mxCell>
        <mxCell id="nYArpauBM2YwA7hL8qmK-8" value="Public subnet" style="points=[[0,0],[0.25,0],[0.5,0],[0.75,0],[1,0],[1,0.25],[1,0.5],[1,0.75],[1,1],[0.75,1],[0.5,1],[0.25,1],[0,1],[0,0.75],[0,0.5],[0,0.25]];outlineConnect=0;gradientColor=none;html=1;whiteSpace=wrap;fontSize=12;fontStyle=0;container=1;pointerEvents=0;collapsible=0;recursiveResize=0;shape=mxgraph.aws4.group;grIcon=mxgraph.aws4.group_security_group;grStroke=0;strokeColor=#7AA116;fillColor=#F2F6E8;verticalAlign=top;align=left;spacingLeft=30;fontColor=#248814;dashed=0;fontFamily=Architects Daughter;fontSource=https%3A%2F%2Ffonts.googleapis.com%2Fcss%3Ffamily%3DArchitects%2BDaughter;" vertex="1" parent="nYArpauBM2YwA7hL8qmK-2">
          <mxGeometry x="480" y="150" width="260" height="270" as="geometry" />
        </mxCell>
        <mxCell id="nYArpauBM2YwA7hL8qmK-6" value="Public subnet" style="points=[[0,0],[0.25,0],[0.5,0],[0.75,0],[1,0],[1,0.25],[1,0.5],[1,0.75],[1,1],[0.75,1],[0.5,1],[0.25,1],[0,1],[0,0.75],[0,0.5],[0,0.25]];outlineConnect=0;gradientColor=none;html=1;whiteSpace=wrap;fontSize=12;fontStyle=0;container=1;pointerEvents=0;collapsible=0;recursiveResize=0;shape=mxgraph.aws4.group;grIcon=mxgraph.aws4.group_security_group;grStroke=0;strokeColor=#7AA116;fillColor=#F2F6E8;verticalAlign=top;align=left;spacingLeft=30;fontColor=#248814;dashed=0;fontFamily=Architects Daughter;fontSource=https%3A%2F%2Ffonts.googleapis.com%2Fcss%3Ffamily%3DArchitects%2BDaughter;" vertex="1" parent="nYArpauBM2YwA7hL8qmK-2">
          <mxGeometry x="55" y="160" width="260" height="270" as="geometry" />
        </mxCell>
        <mxCell id="nYArpauBM2YwA7hL8qmK-9" value="Private subnet" style="points=[[0,0],[0.25,0],[0.5,0],[0.75,0],[1,0],[1,0.25],[1,0.5],[1,0.75],[1,1],[0.75,1],[0.5,1],[0.25,1],[0,1],[0,0.75],[0,0.5],[0,0.25]];outlineConnect=0;gradientColor=none;html=1;whiteSpace=wrap;fontSize=12;fontStyle=0;container=1;pointerEvents=0;collapsible=0;recursiveResize=0;shape=mxgraph.aws4.group;grIcon=mxgraph.aws4.group_security_group;grStroke=0;strokeColor=#00A4A6;fillColor=#E6F6F7;verticalAlign=top;align=left;spacingLeft=30;fontColor=#147EBA;dashed=0;fontFamily=Architects Daughter;fontSource=https%3A%2F%2Ffonts.googleapis.com%2Fcss%3Ffamily%3DArchitects%2BDaughter;" vertex="1" parent="nYArpauBM2YwA7hL8qmK-2">
          <mxGeometry x="55" y="480" width="275" height="560" as="geometry" />
        </mxCell>
        <mxCell id="nYArpauBM2YwA7hL8qmK-11" value="Private subnet" style="points=[[0,0],[0.25,0],[0.5,0],[0.75,0],[1,0],[1,0.25],[1,0.5],[1,0.75],[1,1],[0.75,1],[0.5,1],[0.25,1],[0,1],[0,0.75],[0,0.5],[0,0.25]];outlineConnect=0;gradientColor=none;html=1;whiteSpace=wrap;fontSize=12;fontStyle=0;container=1;pointerEvents=0;collapsible=0;recursiveResize=0;shape=mxgraph.aws4.group;grIcon=mxgraph.aws4.group_security_group;grStroke=0;strokeColor=#00A4A6;fillColor=#E6F6F7;verticalAlign=top;align=left;spacingLeft=30;fontColor=#147EBA;dashed=0;fontFamily=Architects Daughter;fontSource=https%3A%2F%2Ffonts.googleapis.com%2Fcss%3Ffamily%3DArchitects%2BDaughter;" vertex="1" parent="nYArpauBM2YwA7hL8qmK-2">
          <mxGeometry x="480" y="470" width="287.5" height="500" as="geometry" />
        </mxCell>
        <mxCell id="nYArpauBM2YwA7hL8qmK-5" value="Availability Zone" style="fillColor=none;strokeColor=#147EBA;dashed=1;verticalAlign=top;fontStyle=0;fontColor=#147EBA;whiteSpace=wrap;html=1;" vertex="1" parent="nYArpauBM2YwA7hL8qmK-11">
          <mxGeometry x="-7.5" y="-320" width="295" height="820" as="geometry" />
        </mxCell>
        <mxCell id="nYArpauBM2YwA7hL8qmK-13" value="" style="sketch=0;points=[[0,0,0],[0.25,0,0],[0.5,0,0],[0.75,0,0],[1,0,0],[0,1,0],[0.25,1,0],[0.5,1,0],[0.75,1,0],[1,1,0],[0,0.25,0],[0,0.5,0],[0,0.75,0],[1,0.25,0],[1,0.5,0],[1,0.75,0]];outlineConnect=0;fontColor=#232F3E;fillColor=#ED7100;strokeColor=#ffffff;dashed=0;verticalLabelPosition=bottom;verticalAlign=top;align=center;html=1;fontSize=12;fontStyle=0;aspect=fixed;shape=mxgraph.aws4.resourceIcon;resIcon=mxgraph.aws4.ec2;" vertex="1" parent="nYArpauBM2YwA7hL8qmK-11">
          <mxGeometry x="70" y="80" width="78" height="78" as="geometry" />
        </mxCell>
        <mxCell id="nYArpauBM2YwA7hL8qmK-16" value="" style="outlineConnect=0;dashed=0;verticalLabelPosition=bottom;verticalAlign=top;align=center;html=1;shape=mxgraph.aws3.rds_db_instance_standby_multi_az;fillColor=#2E73B8;gradientColor=none;fontFamily=Architects Daughter;fontSource=https%3A%2F%2Ffonts.googleapis.com%2Fcss%3Ffamily%3DArchitects%2BDaughter;" vertex="1" parent="nYArpauBM2YwA7hL8qmK-11">
          <mxGeometry x="80" y="349.9999999999999" width="49.5" height="66" as="geometry" />
        </mxCell>
        <mxCell id="nYArpauBM2YwA7hL8qmK-4" value="Availability Zone" style="fillColor=none;strokeColor=#147EBA;dashed=1;verticalAlign=top;fontStyle=0;fontColor=#147EBA;whiteSpace=wrap;html=1;" vertex="1" parent="nYArpauBM2YwA7hL8qmK-2">
          <mxGeometry x="40" y="90" width="290" height="820" as="geometry" />
        </mxCell>
        <mxCell id="nYArpauBM2YwA7hL8qmK-12" value="" style="sketch=0;points=[[0,0,0],[0.25,0,0],[0.5,0,0],[0.75,0,0],[1,0,0],[0,1,0],[0.25,1,0],[0.5,1,0],[0.75,1,0],[1,1,0],[0,0.25,0],[0,0.5,0],[0,0.75,0],[1,0.25,0],[1,0.5,0],[1,0.75,0]];outlineConnect=0;fontColor=#232F3E;fillColor=#ED7100;strokeColor=#ffffff;dashed=0;verticalLabelPosition=bottom;verticalAlign=top;align=center;html=1;fontSize=12;fontStyle=0;aspect=fixed;shape=mxgraph.aws4.resourceIcon;resIcon=mxgraph.aws4.ec2;" vertex="1" parent="nYArpauBM2YwA7hL8qmK-2">
          <mxGeometry x="110" y="560" width="78" height="78" as="geometry" />
        </mxCell>
        <mxCell id="nYArpauBM2YwA7hL8qmK-14" value="&lt;b&gt;Dynamo DB&lt;/b&gt;&lt;div&gt;&lt;br&gt;&lt;/div&gt;" style="outlineConnect=0;dashed=0;verticalLabelPosition=bottom;verticalAlign=top;align=center;html=1;shape=mxgraph.aws3.dynamo_db;fillColor=#2E73B8;gradientColor=none;" vertex="1" parent="nYArpauBM2YwA7hL8qmK-2">
          <mxGeometry x="110" y="719.5" width="72" height="81" as="geometry" />
        </mxCell>
        <mxCell id="nYArpauBM2YwA7hL8qmK-15" value="" style="outlineConnect=0;dashed=0;verticalLabelPosition=bottom;verticalAlign=top;align=center;html=1;shape=mxgraph.aws3.rds_db_instance_read_replica;fillColor=#2E73B8;gradientColor=none;fontFamily=Architects Daughter;fontSource=https%3A%2F%2Ffonts.googleapis.com%2Fcss%3Ffamily%3DArchitects%2BDaughter;" vertex="1" parent="nYArpauBM2YwA7hL8qmK-2">
          <mxGeometry x="70" y="829.9999999999999" width="49.5" height="66" as="geometry" />
        </mxCell>
        <mxCell id="nYArpauBM2YwA7hL8qmK-17" value="Region" style="points=[[0,0],[0.25,0],[0.5,0],[0.75,0],[1,0],[1,0.25],[1,0.5],[1,0.75],[1,1],[0.75,1],[0.5,1],[0.25,1],[0,1],[0,0.75],[0,0.5],[0,0.25]];outlineConnect=0;gradientColor=none;html=1;whiteSpace=wrap;fontSize=12;fontStyle=0;container=1;pointerEvents=0;collapsible=0;recursiveResize=0;shape=mxgraph.aws4.group;grIcon=mxgraph.aws4.group_region;strokeColor=#00A4A6;fillColor=none;verticalAlign=top;align=left;spacingLeft=30;fontColor=#147EBA;dashed=1;" vertex="1" parent="1">
          <mxGeometry x="40" y="40" width="770" height="1020" as="geometry" />
        </mxCell>
        <mxCell id="nYArpauBM2YwA7hL8qmK-19" value="Public subnet" style="points=[[0,0],[0.25,0],[0.5,0],[0.75,0],[1,0],[1,0.25],[1,0.5],[1,0.75],[1,1],[0.75,1],[0.5,1],[0.25,1],[0,1],[0,0.75],[0,0.5],[0,0.25]];outlineConnect=0;gradientColor=none;html=1;whiteSpace=wrap;fontSize=12;fontStyle=0;container=1;pointerEvents=0;collapsible=0;recursiveResize=0;shape=mxgraph.aws4.group;grIcon=mxgraph.aws4.group_security_group;grStroke=0;strokeColor=#7AA116;fillColor=#F2F6E8;verticalAlign=top;align=left;spacingLeft=30;fontColor=#248814;dashed=0;fontFamily=Architects Daughter;fontSource=https%3A%2F%2Ffonts.googleapis.com%2Fcss%3Ffamily%3DArchitects%2BDaughter;" vertex="1" parent="nYArpauBM2YwA7hL8qmK-17">
          <mxGeometry x="480" y="150" width="260" height="270" as="geometry" />
        </mxCell>
        <mxCell id="nYArpauBM2YwA7hL8qmK-20" value="Public subnet" style="points=[[0,0],[0.25,0],[0.5,0],[0.75,0],[1,0],[1,0.25],[1,0.5],[1,0.75],[1,1],[0.75,1],[0.5,1],[0.25,1],[0,1],[0,0.75],[0,0.5],[0,0.25]];outlineConnect=0;gradientColor=none;html=1;whiteSpace=wrap;fontSize=12;fontStyle=0;container=1;pointerEvents=0;collapsible=0;recursiveResize=0;shape=mxgraph.aws4.group;grIcon=mxgraph.aws4.group_security_group;grStroke=0;strokeColor=#7AA116;fillColor=#F2F6E8;verticalAlign=top;align=left;spacingLeft=30;fontColor=#248814;dashed=0;fontFamily=Architects Daughter;fontSource=https%3A%2F%2Ffonts.googleapis.com%2Fcss%3Ffamily%3DArchitects%2BDaughter;" vertex="1" parent="nYArpauBM2YwA7hL8qmK-17">
          <mxGeometry x="55" y="160" width="260" height="270" as="geometry" />
        </mxCell>
        <mxCell id="nYArpauBM2YwA7hL8qmK-21" value="Private subnet" style="points=[[0,0],[0.25,0],[0.5,0],[0.75,0],[1,0],[1,0.25],[1,0.5],[1,0.75],[1,1],[0.75,1],[0.5,1],[0.25,1],[0,1],[0,0.75],[0,0.5],[0,0.25]];outlineConnect=0;gradientColor=none;html=1;whiteSpace=wrap;fontSize=12;fontStyle=0;container=1;pointerEvents=0;collapsible=0;recursiveResize=0;shape=mxgraph.aws4.group;grIcon=mxgraph.aws4.group_security_group;grStroke=0;strokeColor=#00A4A6;fillColor=#E6F6F7;verticalAlign=top;align=left;spacingLeft=30;fontColor=#147EBA;dashed=0;fontFamily=Architects Daughter;fontSource=https%3A%2F%2Ffonts.googleapis.com%2Fcss%3Ffamily%3DArchitects%2BDaughter;" vertex="1" parent="nYArpauBM2YwA7hL8qmK-17">
          <mxGeometry x="55" y="480" width="275" height="560" as="geometry" />
        </mxCell>
        <mxCell id="nYArpauBM2YwA7hL8qmK-22" value="Private subnet" style="points=[[0,0],[0.25,0],[0.5,0],[0.75,0],[1,0],[1,0.25],[1,0.5],[1,0.75],[1,1],[0.75,1],[0.5,1],[0.25,1],[0,1],[0,0.75],[0,0.5],[0,0.25]];outlineConnect=0;gradientColor=none;html=1;whiteSpace=wrap;fontSize=12;fontStyle=0;container=1;pointerEvents=0;collapsible=0;recursiveResize=0;shape=mxgraph.aws4.group;grIcon=mxgraph.aws4.group_security_group;grStroke=0;strokeColor=#00A4A6;fillColor=#E6F6F7;verticalAlign=top;align=left;spacingLeft=30;fontColor=#147EBA;dashed=0;fontFamily=Architects Daughter;fontSource=https%3A%2F%2Ffonts.googleapis.com%2Fcss%3Ffamily%3DArchitects%2BDaughter;" vertex="1" parent="nYArpauBM2YwA7hL8qmK-17">
          <mxGeometry x="480" y="470" width="287.5" height="500" as="geometry" />
        </mxCell>
        <mxCell id="nYArpauBM2YwA7hL8qmK-23" value="Availability Zone" style="fillColor=none;strokeColor=#147EBA;dashed=1;verticalAlign=top;fontStyle=0;fontColor=#147EBA;whiteSpace=wrap;html=1;" vertex="1" parent="nYArpauBM2YwA7hL8qmK-22">
          <mxGeometry x="-7.5" y="-320" width="295" height="820" as="geometry" />
        </mxCell>
        <mxCell id="nYArpauBM2YwA7hL8qmK-24" value="" style="sketch=0;points=[[0,0,0],[0.25,0,0],[0.5,0,0],[0.75,0,0],[1,0,0],[0,1,0],[0.25,1,0],[0.5,1,0],[0.75,1,0],[1,1,0],[0,0.25,0],[0,0.5,0],[0,0.75,0],[1,0.25,0],[1,0.5,0],[1,0.75,0]];outlineConnect=0;fontColor=#232F3E;fillColor=#ED7100;strokeColor=#ffffff;dashed=0;verticalLabelPosition=bottom;verticalAlign=top;align=center;html=1;fontSize=12;fontStyle=0;aspect=fixed;shape=mxgraph.aws4.resourceIcon;resIcon=mxgraph.aws4.ec2;" vertex="1" parent="nYArpauBM2YwA7hL8qmK-22">
          <mxGeometry x="70" y="80" width="78" height="78" as="geometry" />
        </mxCell>
        <mxCell id="nYArpauBM2YwA7hL8qmK-45" style="edgeStyle=orthogonalEdgeStyle;rounded=0;orthogonalLoop=1;jettySize=auto;html=1;" edge="1" parent="nYArpauBM2YwA7hL8qmK-22" source="nYArpauBM2YwA7hL8qmK-25" target="nYArpauBM2YwA7hL8qmK-24">
          <mxGeometry relative="1" as="geometry" />
        </mxCell>
        <mxCell id="nYArpauBM2YwA7hL8qmK-25" value="" style="outlineConnect=0;dashed=0;verticalLabelPosition=bottom;verticalAlign=top;align=center;html=1;shape=mxgraph.aws3.rds_db_instance_standby_multi_az;fillColor=#2E73B8;gradientColor=none;fontFamily=Architects Daughter;fontSource=https%3A%2F%2Ffonts.googleapis.com%2Fcss%3Ffamily%3DArchitects%2BDaughter;" vertex="1" parent="nYArpauBM2YwA7hL8qmK-22">
          <mxGeometry x="20.5" y="244.9999999999999" width="49.5" height="66" as="geometry" />
        </mxCell>
        <mxCell id="nYArpauBM2YwA7hL8qmK-44" value="" style="edgeStyle=orthogonalEdgeStyle;rounded=0;orthogonalLoop=1;jettySize=auto;html=1;" edge="1" parent="nYArpauBM2YwA7hL8qmK-22" source="nYArpauBM2YwA7hL8qmK-30" target="nYArpauBM2YwA7hL8qmK-24">
          <mxGeometry relative="1" as="geometry">
            <Array as="points">
              <mxPoint x="176" y="190" />
              <mxPoint x="140" y="190" />
            </Array>
          </mxGeometry>
        </mxCell>
        <mxCell id="nYArpauBM2YwA7hL8qmK-30" value="&lt;b&gt;Dynamo DB&lt;/b&gt;&lt;div&gt;&lt;br&gt;&lt;/div&gt;" style="outlineConnect=0;dashed=0;verticalLabelPosition=bottom;verticalAlign=top;align=center;html=1;shape=mxgraph.aws3.dynamo_db;fillColor=#2E73B8;gradientColor=none;" vertex="1" parent="nYArpauBM2YwA7hL8qmK-22">
          <mxGeometry x="140" y="230" width="72" height="81" as="geometry" />
        </mxCell>
        <mxCell id="nYArpauBM2YwA7hL8qmK-26" value="Availability Zone" style="fillColor=none;strokeColor=#147EBA;dashed=1;verticalAlign=top;fontStyle=0;fontColor=#147EBA;whiteSpace=wrap;html=1;" vertex="1" parent="nYArpauBM2YwA7hL8qmK-17">
          <mxGeometry x="40" y="90" width="290" height="820" as="geometry" />
        </mxCell>
        <mxCell id="nYArpauBM2YwA7hL8qmK-41" style="edgeStyle=orthogonalEdgeStyle;rounded=0;orthogonalLoop=1;jettySize=auto;html=1;" edge="1" parent="nYArpauBM2YwA7hL8qmK-17" source="nYArpauBM2YwA7hL8qmK-27" target="nYArpauBM2YwA7hL8qmK-31">
          <mxGeometry relative="1" as="geometry" />
        </mxCell>
        <mxCell id="nYArpauBM2YwA7hL8qmK-27" value="" style="sketch=0;points=[[0,0,0],[0.25,0,0],[0.5,0,0],[0.75,0,0],[1,0,0],[0,1,0],[0.25,1,0],[0.5,1,0],[0.75,1,0],[1,1,0],[0,0.25,0],[0,0.5,0],[0,0.75,0],[1,0.25,0],[1,0.5,0],[1,0.75,0]];outlineConnect=0;fontColor=#232F3E;fillColor=#ED7100;strokeColor=#ffffff;dashed=0;verticalLabelPosition=bottom;verticalAlign=top;align=center;html=1;fontSize=12;fontStyle=0;aspect=fixed;shape=mxgraph.aws4.resourceIcon;resIcon=mxgraph.aws4.ec2;direction=south;" vertex="1" parent="nYArpauBM2YwA7hL8qmK-17">
          <mxGeometry x="110" y="560" width="78" height="78" as="geometry" />
        </mxCell>
        <mxCell id="nYArpauBM2YwA7hL8qmK-43" value="" style="edgeStyle=orthogonalEdgeStyle;rounded=0;orthogonalLoop=1;jettySize=auto;html=1;" edge="1" parent="nYArpauBM2YwA7hL8qmK-17" source="nYArpauBM2YwA7hL8qmK-28" target="nYArpauBM2YwA7hL8qmK-27">
          <mxGeometry relative="1" as="geometry" />
        </mxCell>
        <mxCell id="nYArpauBM2YwA7hL8qmK-28" value="&lt;b&gt;Dynamo DB&lt;/b&gt;&lt;div&gt;&lt;br&gt;&lt;/div&gt;" style="outlineConnect=0;dashed=0;verticalLabelPosition=bottom;verticalAlign=top;align=center;html=1;shape=mxgraph.aws3.dynamo_db;fillColor=#2E73B8;gradientColor=none;" vertex="1" parent="nYArpauBM2YwA7hL8qmK-17">
          <mxGeometry x="70" y="719.5" width="72" height="81" as="geometry" />
        </mxCell>
        <mxCell id="nYArpauBM2YwA7hL8qmK-29" value="" style="outlineConnect=0;dashed=0;verticalLabelPosition=bottom;verticalAlign=top;align=center;html=1;shape=mxgraph.aws3.rds_db_instance_read_replica;fillColor=#2E73B8;gradientColor=none;fontFamily=Architects Daughter;fontSource=https%3A%2F%2Ffonts.googleapis.com%2Fcss%3Ffamily%3DArchitects%2BDaughter;" vertex="1" parent="nYArpauBM2YwA7hL8qmK-17">
          <mxGeometry x="240" y="719.4999999999999" width="49.5" height="66" as="geometry" />
        </mxCell>
        <mxCell id="nYArpauBM2YwA7hL8qmK-47" value="" style="edgeStyle=orthogonalEdgeStyle;rounded=0;orthogonalLoop=1;jettySize=auto;html=1;" edge="1" parent="nYArpauBM2YwA7hL8qmK-17" source="nYArpauBM2YwA7hL8qmK-31" target="nYArpauBM2YwA7hL8qmK-32">
          <mxGeometry relative="1" as="geometry" />
        </mxCell>
        <mxCell id="nYArpauBM2YwA7hL8qmK-31" value="" style="outlineConnect=0;dashed=0;verticalLabelPosition=bottom;verticalAlign=top;align=center;html=1;shape=mxgraph.aws3.classic_load_balancer;fillColor=#F58534;gradientColor=none;" vertex="1" parent="nYArpauBM2YwA7hL8qmK-17">
          <mxGeometry x="346" y="300" width="69" height="72" as="geometry" />
        </mxCell>
        <mxCell id="nYArpauBM2YwA7hL8qmK-48" value="" style="edgeStyle=orthogonalEdgeStyle;rounded=0;orthogonalLoop=1;jettySize=auto;html=1;" edge="1" parent="nYArpauBM2YwA7hL8qmK-17" source="nYArpauBM2YwA7hL8qmK-32" target="nYArpauBM2YwA7hL8qmK-34">
          <mxGeometry relative="1" as="geometry" />
        </mxCell>
        <mxCell id="nYArpauBM2YwA7hL8qmK-32" value="" style="sketch=0;points=[[0,0,0],[0.25,0,0],[0.5,0,0],[0.75,0,0],[1,0,0],[0,1,0],[0.25,1,0],[0.5,1,0],[0.75,1,0],[1,1,0],[0,0.25,0],[0,0.5,0],[0,0.75,0],[1,0.25,0],[1,0.5,0],[1,0.75,0]];outlineConnect=0;fontColor=#232F3E;fillColor=#DD344C;strokeColor=#ffffff;dashed=0;verticalLabelPosition=bottom;verticalAlign=top;align=center;html=1;fontSize=12;fontStyle=0;aspect=fixed;shape=mxgraph.aws4.resourceIcon;resIcon=mxgraph.aws4.waf;" vertex="1" parent="nYArpauBM2YwA7hL8qmK-17">
          <mxGeometry x="346" y="170" width="78" height="78" as="geometry" />
        </mxCell>
        <mxCell id="nYArpauBM2YwA7hL8qmK-34" value="" style="sketch=0;points=[[0,0,0],[0.25,0,0],[0.5,0,0],[0.75,0,0],[1,0,0],[0,1,0],[0.25,1,0],[0.5,1,0],[0.75,1,0],[1,1,0],[0,0.25,0],[0,0.5,0],[0,0.75,0],[1,0.25,0],[1,0.5,0],[1,0.75,0]];outlineConnect=0;fontColor=#232F3E;fillColor=#8C4FFF;strokeColor=#ffffff;dashed=0;verticalLabelPosition=bottom;verticalAlign=top;align=center;html=1;fontSize=12;fontStyle=0;aspect=fixed;shape=mxgraph.aws4.resourceIcon;resIcon=mxgraph.aws4.route_53;fontFamily=Architects Daughter;fontSource=https%3A%2F%2Ffonts.googleapis.com%2Fcss%3Ffamily%3DArchitects%2BDaughter;" vertex="1" parent="nYArpauBM2YwA7hL8qmK-17">
          <mxGeometry x="346" y="60" width="78" height="78" as="geometry" />
        </mxCell>
        <mxCell id="nYArpauBM2YwA7hL8qmK-35" value="" style="sketch=0;points=[[0,0,0],[0.25,0,0],[0.5,0,0],[0.75,0,0],[1,0,0],[0,1,0],[0.25,1,0],[0.5,1,0],[0.75,1,0],[1,1,0],[0,0.25,0],[0,0.5,0],[0,0.75,0],[1,0.25,0],[1,0.5,0],[1,0.75,0]];outlineConnect=0;fontColor=#232F3E;fillColor=#8C4FFF;strokeColor=#ffffff;dashed=0;verticalLabelPosition=bottom;verticalAlign=top;align=center;html=1;fontSize=12;fontStyle=0;aspect=fixed;shape=mxgraph.aws4.resourceIcon;resIcon=mxgraph.aws4.cloudfront;" vertex="1" parent="nYArpauBM2YwA7hL8qmK-17">
          <mxGeometry x="470" y="50" width="78" height="78" as="geometry" />
        </mxCell>
        <mxCell id="nYArpauBM2YwA7hL8qmK-37" value="" style="sketch=0;points=[[0,0,0],[0.25,0,0],[0.5,0,0],[0.75,0,0],[1,0,0],[0,1,0],[0.25,1,0],[0.5,1,0],[0.75,1,0],[1,1,0],[0,0.25,0],[0,0.5,0],[0,0.75,0],[1,0.25,0],[1,0.5,0],[1,0.75,0]];outlineConnect=0;fontColor=#232F3E;fillColor=#7AA116;strokeColor=#ffffff;dashed=0;verticalLabelPosition=bottom;verticalAlign=top;align=center;html=1;fontSize=12;fontStyle=0;aspect=fixed;shape=mxgraph.aws4.resourceIcon;resIcon=mxgraph.aws4.s3;" vertex="1" parent="nYArpauBM2YwA7hL8qmK-17">
          <mxGeometry x="584.75" y="50" width="78" height="78" as="geometry" />
        </mxCell>
        <mxCell id="nYArpauBM2YwA7hL8qmK-38" value="" style="sketch=0;points=[[0,0,0],[0.25,0,0],[0.5,0,0],[0.75,0,0],[1,0,0],[0,1,0],[0.25,1,0],[0.5,1,0],[0.75,1,0],[1,1,0],[0,0.25,0],[0,0.5,0],[0,0.75,0],[1,0.25,0],[1,0.5,0],[1,0.75,0]];outlineConnect=0;fontColor=#232F3E;fillColor=#7AA116;strokeColor=#ffffff;dashed=0;verticalLabelPosition=bottom;verticalAlign=top;align=center;html=1;fontSize=12;fontStyle=0;aspect=fixed;shape=mxgraph.aws4.resourceIcon;resIcon=mxgraph.aws4.glacier;" vertex="1" parent="nYArpauBM2YwA7hL8qmK-17">
          <mxGeometry x="680" y="50" width="78" height="78" as="geometry" />
        </mxCell>
        <mxCell id="nYArpauBM2YwA7hL8qmK-42" style="edgeStyle=orthogonalEdgeStyle;rounded=0;orthogonalLoop=1;jettySize=auto;html=1;entryX=1;entryY=0.5;entryDx=0;entryDy=0;entryPerimeter=0;" edge="1" parent="nYArpauBM2YwA7hL8qmK-17" source="nYArpauBM2YwA7hL8qmK-24" target="nYArpauBM2YwA7hL8qmK-31">
          <mxGeometry relative="1" as="geometry" />
        </mxCell>
        <mxCell id="nYArpauBM2YwA7hL8qmK-46" style="edgeStyle=orthogonalEdgeStyle;rounded=0;orthogonalLoop=1;jettySize=auto;html=1;entryX=1;entryY=0;entryDx=0;entryDy=0;entryPerimeter=0;" edge="1" parent="nYArpauBM2YwA7hL8qmK-17" source="nYArpauBM2YwA7hL8qmK-29" target="nYArpauBM2YwA7hL8qmK-27">
          <mxGeometry relative="1" as="geometry" />
        </mxCell>
        <mxCell id="nYArpauBM2YwA7hL8qmK-50" value="Auto Scaling group" style="points=[[0,0],[0.25,0],[0.5,0],[0.75,0],[1,0],[1,0.25],[1,0.5],[1,0.75],[1,1],[0.75,1],[0.5,1],[0.25,1],[0,1],[0,0.75],[0,0.5],[0,0.25]];outlineConnect=0;gradientColor=none;html=1;whiteSpace=wrap;fontSize=12;fontStyle=0;container=1;pointerEvents=0;collapsible=0;recursiveResize=0;shape=mxgraph.aws4.groupCenter;grIcon=mxgraph.aws4.group_auto_scaling_group;grStroke=1;strokeColor=#D86613;fillColor=none;verticalAlign=top;align=center;fontColor=#D86613;dashed=1;spacingTop=25;" vertex="1" parent="nYArpauBM2YwA7hL8qmK-17">
          <mxGeometry x="84" y="540" width="646" height="130" as="geometry" />
        </mxCell>
        <mxCell id="nYArpauBM2YwA7hL8qmK-33" value="" style="sketch=0;outlineConnect=0;fontColor=#232F3E;gradientColor=none;fillColor=#8C4FFF;strokeColor=none;dashed=0;verticalLabelPosition=bottom;verticalAlign=top;align=center;html=1;fontSize=12;fontStyle=0;aspect=fixed;pointerEvents=1;shape=mxgraph.aws4.internet_gateway;fontFamily=Architects Daughter;fontSource=https%3A%2F%2Ffonts.googleapis.com%2Fcss%3Ffamily%3DArchitects%2BDaughter;" vertex="1" parent="1">
          <mxGeometry x="396" width="78" height="78" as="geometry" />
        </mxCell>
        <mxCell id="nYArpauBM2YwA7hL8qmK-49" value="" style="edgeStyle=orthogonalEdgeStyle;rounded=0;orthogonalLoop=1;jettySize=auto;html=1;" edge="1" parent="1" source="nYArpauBM2YwA7hL8qmK-34" target="nYArpauBM2YwA7hL8qmK-33">
          <mxGeometry relative="1" as="geometry" />
        </mxCell>
        <mxCell id="nYArpauBM2YwA7hL8qmK-51" value="Auto Scaling group" style="points=[[0,0],[0.25,0],[0.5,0],[0.75,0],[1,0],[1,0.25],[1,0.5],[1,0.75],[1,1],[0.75,1],[0.5,1],[0.25,1],[0,1],[0,0.75],[0,0.5],[0,0.25]];outlineConnect=0;gradientColor=none;html=1;whiteSpace=wrap;fontSize=12;fontStyle=0;container=1;pointerEvents=0;collapsible=0;recursiveResize=0;shape=mxgraph.aws4.groupCenter;grIcon=mxgraph.aws4.group_auto_scaling_group;grStroke=1;strokeColor=#D86613;fillColor=none;verticalAlign=top;align=center;fontColor=#D86613;dashed=1;spacingTop=25;" vertex="1" parent="1">
          <mxGeometry x="80" y="730" width="680" height="170" as="geometry" />
        </mxCell>
      </root>
    </mxGraphModel>
  </diagram>
  <diagram id="_nSNvlGvURC2805_B41B" name="StopPayment">
    <mxGraphModel dx="1194" dy="626" grid="1" gridSize="10" guides="1" tooltips="1" connect="1" arrows="1" fold="1" page="1" pageScale="1" pageWidth="850" pageHeight="1100" math="0" shadow="0">
      <root>
        <mxCell id="0" />
        <mxCell id="1" parent="0" />
        <mxCell id="0RKv3RE3UCURRhWucKba-1" value="User" style="shape=umlLifeline;perimeter=lifelinePerimeter;whiteSpace=wrap;container=1;dropTarget=0;collapsible=0;recursiveResize=0;outlineConnect=0;portConstraint=eastwest;newEdgeStyle={&quot;edgeStyle&quot;:&quot;elbowEdgeStyle&quot;,&quot;elbow&quot;:&quot;vertical&quot;,&quot;curved&quot;:0,&quot;rounded&quot;:0};size=65;fontSize=17;" vertex="1" parent="1">
          <mxGeometry x="20" y="20" width="150" height="522" as="geometry" />
        </mxCell>
        <mxCell id="0RKv3RE3UCURRhWucKba-2" value="API Gateway" style="shape=umlLifeline;perimeter=lifelinePerimeter;whiteSpace=wrap;container=1;dropTarget=0;collapsible=0;recursiveResize=0;outlineConnect=0;portConstraint=eastwest;newEdgeStyle={&quot;edgeStyle&quot;:&quot;elbowEdgeStyle&quot;,&quot;elbow&quot;:&quot;vertical&quot;,&quot;curved&quot;:0,&quot;rounded&quot;:0};size=65;fontSize=17;" vertex="1" parent="1">
          <mxGeometry x="423" y="20" width="150" height="522" as="geometry" />
        </mxCell>
        <mxCell id="0RKv3RE3UCURRhWucKba-3" value="Core Banking System" style="shape=umlLifeline;perimeter=lifelinePerimeter;whiteSpace=wrap;container=1;dropTarget=0;collapsible=0;recursiveResize=0;outlineConnect=0;portConstraint=eastwest;newEdgeStyle={&quot;edgeStyle&quot;:&quot;elbowEdgeStyle&quot;,&quot;elbow&quot;:&quot;vertical&quot;,&quot;curved&quot;:0,&quot;rounded&quot;:0};size=65;fontSize=17;" vertex="1" parent="1">
          <mxGeometry x="817" y="20" width="169" height="522" as="geometry" />
        </mxCell>
        <mxCell id="0RKv3RE3UCURRhWucKba-4" value="alt" style="shape=umlFrame;dashed=1;pointerEvents=0;dropTarget=0;strokeColor=#B3B3B3;height=20;width=30;fontSize=17;" vertex="1" parent="1">
          <mxGeometry x="487" y="199" width="425" height="196" as="geometry" />
        </mxCell>
        <mxCell id="0RKv3RE3UCURRhWucKba-5" value="[Success]" style="text;strokeColor=none;fillColor=none;align=center;verticalAlign=middle;whiteSpace=wrap;fontSize=17;" vertex="1" parent="0RKv3RE3UCURRhWucKba-4">
          <mxGeometry x="30" width="395" height="20" as="geometry" />
        </mxCell>
        <mxCell id="0RKv3RE3UCURRhWucKba-6" value="[Failure]" style="shape=line;dashed=1;whiteSpace=wrap;verticalAlign=top;labelPosition=center;verticalLabelPosition=middle;align=center;strokeColor=#B3B3B3;fontSize=17;" vertex="1" parent="0RKv3RE3UCURRhWucKba-4">
          <mxGeometry y="103" width="425" height="4" as="geometry" />
        </mxCell>
        <mxCell id="0RKv3RE3UCURRhWucKba-7" value="POST /stop-payment (request data)" style="verticalAlign=bottom;endArrow=block;edgeStyle=elbowEdgeStyle;elbow=vertical;curved=0;rounded=0;fontSize=17;" edge="1" parent="1" source="0RKv3RE3UCURRhWucKba-1" target="0RKv3RE3UCURRhWucKba-2">
          <mxGeometry relative="1" as="geometry">
            <Array as="points">
              <mxPoint x="305" y="127" />
            </Array>
          </mxGeometry>
        </mxCell>
        <mxCell id="0RKv3RE3UCURRhWucKba-8" value="Stop Payment Request (request data)" style="verticalAlign=bottom;endArrow=block;edgeStyle=elbowEdgeStyle;elbow=vertical;curved=0;rounded=0;fontSize=17;" edge="1" parent="1" source="0RKv3RE3UCURRhWucKba-2" target="0RKv3RE3UCURRhWucKba-3">
          <mxGeometry relative="1" as="geometry">
            <Array as="points">
              <mxPoint x="708" y="179" />
            </Array>
          </mxGeometry>
        </mxCell>
        <mxCell id="0RKv3RE3UCURRhWucKba-9" value="Stop Payment Response (status, data, message)" style="verticalAlign=bottom;endArrow=block;edgeStyle=elbowEdgeStyle;elbow=vertical;curved=0;rounded=0;fontSize=17;" edge="1" parent="1" source="0RKv3RE3UCURRhWucKba-3" target="0RKv3RE3UCURRhWucKba-2">
          <mxGeometry relative="1" as="geometry">
            <Array as="points">
              <mxPoint x="711" y="277" />
            </Array>
          </mxGeometry>
        </mxCell>
        <mxCell id="0RKv3RE3UCURRhWucKba-10" value="Error Response (error code, message)" style="verticalAlign=bottom;endArrow=block;edgeStyle=elbowEdgeStyle;elbow=vertical;curved=0;rounded=0;fontSize=17;" edge="1" parent="1" source="0RKv3RE3UCURRhWucKba-3" target="0RKv3RE3UCURRhWucKba-2">
          <mxGeometry relative="1" as="geometry">
            <Array as="points">
              <mxPoint x="711" y="375" />
            </Array>
          </mxGeometry>
        </mxCell>
        <mxCell id="0RKv3RE3UCURRhWucKba-11" value="Stop Payment Response (status, data, message)" style="verticalAlign=bottom;endArrow=block;edgeStyle=elbowEdgeStyle;elbow=vertical;curved=0;rounded=0;fontSize=17;" edge="1" parent="1" source="0RKv3RE3UCURRhWucKba-2" target="0RKv3RE3UCURRhWucKba-1">
          <mxGeometry relative="1" as="geometry">
            <Array as="points">
              <mxPoint x="308" y="437" />
            </Array>
          </mxGeometry>
        </mxCell>
      </root>
    </mxGraphModel>
  </diagram>
  <diagram id="D6Lkf61-_NfhI5nvGiEl" name="Page-4">
    <mxGraphModel grid="1" page="1" gridSize="10" guides="1" tooltips="1" connect="1" arrows="1" fold="1" pageScale="1" pageWidth="850" pageHeight="1100" math="0" shadow="0">
      <root>
        <mxCell id="0" />
        <mxCell id="1" parent="0" />
      </root>
    </mxGraphModel>
  </diagram>
  <diagram id="q6xxsNVTeDpsKOUZp4dH" name="Page-5">
    <mxGraphModel grid="1" page="1" gridSize="10" guides="1" tooltips="1" connect="1" arrows="1" fold="1" pageScale="1" pageWidth="850" pageHeight="1100" math="0" shadow="0">
      <root>
        <mxCell id="0" />
        <mxCell id="1" parent="0" />
      </root>
    </mxGraphModel>
  </diagram>
  <diagram id="nTEd9JTTMG9lbnSyl7iy" name="EcommDataFlow">
    <mxGraphModel dx="1194" dy="626" grid="1" gridSize="10" guides="1" tooltips="1" connect="1" arrows="1" fold="1" page="1" pageScale="1" pageWidth="850" pageHeight="1100" math="0" shadow="0">
      <root>
        <mxCell id="0" />
        <mxCell id="1" parent="0" />
        <mxCell id="NIfK9gNvaq1IY62xJWaR-1" value="E-commerce Website" style="shape=umlLifeline;perimeter=lifelinePerimeter;whiteSpace=wrap;container=1;dropTarget=0;collapsible=0;recursiveResize=0;outlineConnect=0;portConstraint=eastwest;newEdgeStyle={&quot;edgeStyle&quot;:&quot;elbowEdgeStyle&quot;,&quot;elbow&quot;:&quot;vertical&quot;,&quot;curved&quot;:0,&quot;rounded&quot;:0};size=65;fontSize=17;" vertex="1" parent="1">
          <mxGeometry x="20" y="20" width="170" height="674" as="geometry" />
        </mxCell>
        <mxCell id="NIfK9gNvaq1IY62xJWaR-2" value="RabbitMQ" style="shape=umlLifeline;perimeter=lifelinePerimeter;whiteSpace=wrap;container=1;dropTarget=0;collapsible=0;recursiveResize=0;outlineConnect=0;portConstraint=eastwest;newEdgeStyle={&quot;edgeStyle&quot;:&quot;elbowEdgeStyle&quot;,&quot;elbow&quot;:&quot;vertical&quot;,&quot;curved&quot;:0,&quot;rounded&quot;:0};size=65;fontSize=17;" vertex="1" parent="1">
          <mxGeometry x="248" y="20" width="150" height="674" as="geometry" />
        </mxCell>
        <mxCell id="NIfK9gNvaq1IY62xJWaR-3" value="Kafka" style="shape=umlLifeline;perimeter=lifelinePerimeter;whiteSpace=wrap;container=1;dropTarget=0;collapsible=0;recursiveResize=0;outlineConnect=0;portConstraint=eastwest;newEdgeStyle={&quot;edgeStyle&quot;:&quot;elbowEdgeStyle&quot;,&quot;elbow&quot;:&quot;vertical&quot;,&quot;curved&quot;:0,&quot;rounded&quot;:0};size=65;fontSize=17;" vertex="1" parent="1">
          <mxGeometry x="448" y="20" width="150" height="674" as="geometry" />
        </mxCell>
        <mxCell id="NIfK9gNvaq1IY62xJWaR-4" value="RabbitMQ Consumer" style="shape=umlLifeline;perimeter=lifelinePerimeter;whiteSpace=wrap;container=1;dropTarget=0;collapsible=0;recursiveResize=0;outlineConnect=0;portConstraint=eastwest;newEdgeStyle={&quot;edgeStyle&quot;:&quot;elbowEdgeStyle&quot;,&quot;elbow&quot;:&quot;vertical&quot;,&quot;curved&quot;:0,&quot;rounded&quot;:0};size=65;fontSize=17;" vertex="1" parent="1">
          <mxGeometry x="648" y="20" width="169" height="674" as="geometry" />
        </mxCell>
        <mxCell id="NIfK9gNvaq1IY62xJWaR-5" value="Kafka Consumer" style="shape=umlLifeline;perimeter=lifelinePerimeter;whiteSpace=wrap;container=1;dropTarget=0;collapsible=0;recursiveResize=0;outlineConnect=0;portConstraint=eastwest;newEdgeStyle={&quot;edgeStyle&quot;:&quot;elbowEdgeStyle&quot;,&quot;elbow&quot;:&quot;vertical&quot;,&quot;curved&quot;:0,&quot;rounded&quot;:0};size=65;fontSize=17;" vertex="1" parent="1">
          <mxGeometry x="1098" y="20" width="150" height="674" as="geometry" />
        </mxCell>
        <mxCell id="NIfK9gNvaq1IY62xJWaR-6" value="Send Order Message" style="verticalAlign=bottom;endArrow=block;edgeStyle=elbowEdgeStyle;elbow=vertical;curved=0;rounded=0;fontSize=17;" edge="1" parent="1" source="NIfK9gNvaq1IY62xJWaR-1" target="NIfK9gNvaq1IY62xJWaR-2">
          <mxGeometry relative="1" as="geometry">
            <Array as="points">
              <mxPoint x="223" y="127" />
            </Array>
          </mxGeometry>
        </mxCell>
        <mxCell id="NIfK9gNvaq1IY62xJWaR-7" value="Receive Order Message" style="verticalAlign=bottom;endArrow=block;edgeStyle=elbowEdgeStyle;elbow=vertical;curved=0;rounded=0;fontSize=17;" edge="1" parent="1" source="NIfK9gNvaq1IY62xJWaR-2" target="NIfK9gNvaq1IY62xJWaR-4">
          <mxGeometry relative="1" as="geometry">
            <Array as="points">
              <mxPoint x="536" y="179" />
            </Array>
          </mxGeometry>
        </mxCell>
        <mxCell id="NIfK9gNvaq1IY62xJWaR-8" value="Process Order, Update Inventory" style="verticalAlign=bottom;endArrow=block;edgeStyle=elbowEdgeStyle;elbow=vertical;curved=0;rounded=0;fontSize=17;" edge="1" parent="1" source="NIfK9gNvaq1IY62xJWaR-4" target="NIfK9gNvaq1IY62xJWaR-2">
          <mxGeometry relative="1" as="geometry">
            <Array as="points">
              <mxPoint x="539" y="231" />
            </Array>
          </mxGeometry>
        </mxCell>
        <mxCell id="NIfK9gNvaq1IY62xJWaR-9" value="Send Order Confirmation Email" style="verticalAlign=bottom;endArrow=block;edgeStyle=elbowEdgeStyle;elbow=vertical;curved=0;rounded=0;fontSize=17;" edge="1" parent="1" source="NIfK9gNvaq1IY62xJWaR-4" target="NIfK9gNvaq1IY62xJWaR-1">
          <mxGeometry relative="1" as="geometry">
            <Array as="points">
              <mxPoint x="430" y="283" />
            </Array>
          </mxGeometry>
        </mxCell>
        <mxCell id="NIfK9gNvaq1IY62xJWaR-10" value="Send Order Message" style="verticalAlign=bottom;endArrow=block;edgeStyle=elbowEdgeStyle;elbow=vertical;curved=0;rounded=0;fontSize=17;" edge="1" parent="1" source="NIfK9gNvaq1IY62xJWaR-1" target="NIfK9gNvaq1IY62xJWaR-3">
          <mxGeometry relative="1" as="geometry">
            <Array as="points">
              <mxPoint x="323" y="335" />
            </Array>
          </mxGeometry>
        </mxCell>
        <mxCell id="NIfK9gNvaq1IY62xJWaR-11" value="Receive Order Message" style="verticalAlign=bottom;endArrow=block;edgeStyle=elbowEdgeStyle;elbow=vertical;curved=0;rounded=0;fontSize=17;" edge="1" parent="1" source="NIfK9gNvaq1IY62xJWaR-3" target="NIfK9gNvaq1IY62xJWaR-5">
          <mxGeometry relative="1" as="geometry">
            <Array as="points">
              <mxPoint x="856" y="387" />
            </Array>
          </mxGeometry>
        </mxCell>
        <mxCell id="NIfK9gNvaq1IY62xJWaR-12" value="Real-time Analytics" style="verticalAlign=bottom;endArrow=block;edgeStyle=elbowEdgeStyle;elbow=vertical;curved=0;rounded=0;fontSize=17;" edge="1" parent="1" source="NIfK9gNvaq1IY62xJWaR-5" target="NIfK9gNvaq1IY62xJWaR-3">
          <mxGeometry relative="1" as="geometry">
            <Array as="points">
              <mxPoint x="859" y="439" />
            </Array>
          </mxGeometry>
        </mxCell>
        <mxCell id="NIfK9gNvaq1IY62xJWaR-13" value="Insights for Marketing" style="verticalAlign=bottom;endArrow=block;edgeStyle=elbowEdgeStyle;elbow=vertical;curved=0;rounded=0;dashed=1;dashPattern=2 3;fontSize=17;" edge="1" parent="1" source="NIfK9gNvaq1IY62xJWaR-5" target="NIfK9gNvaq1IY62xJWaR-1">
          <mxGeometry relative="1" as="geometry">
            <Array as="points">
              <mxPoint x="650" y="491" />
            </Array>
          </mxGeometry>
        </mxCell>
        <mxCell id="NIfK9gNvaq1IY62xJWaR-14" value="Immediate Order Processing&#xa;and Inventory Update" style="fillColor=#ffff88;strokeColor=#9E916F;fontSize=17;" vertex="1" parent="1">
          <mxGeometry x="758" y="511" width="390" height="49" as="geometry" />
        </mxCell>
        <mxCell id="NIfK9gNvaq1IY62xJWaR-15" value="Real-time Analytics&#xa;and Insights Generation" style="fillColor=#ffff88;strokeColor=#9E916F;fontSize=17;" vertex="1" parent="1">
          <mxGeometry x="1198" y="560" width="338" height="49" as="geometry" />
        </mxCell>
      </root>
    </mxGraphModel>
  </diagram>
  <diagram id="FN6JETcaOduC0eFlxrN9" name="CCTVDataFlow">
    <mxGraphModel dx="1194" dy="626" grid="1" gridSize="10" guides="1" tooltips="1" connect="1" arrows="1" fold="1" page="1" pageScale="1" pageWidth="850" pageHeight="1100" math="0" shadow="0">
      <root>
        <mxCell id="0" />
        <mxCell id="1" parent="0" />
        <mxCell id="p-p3xr87JfgVD6axUx0l-1" value="Monitoring &amp; Alerts" style="whiteSpace=wrap;strokeWidth=2;verticalAlign=top;fontSize=17;" vertex="1" parent="1">
          <mxGeometry x="770" y="123" width="433" height="1418" as="geometry" />
        </mxCell>
        <mxCell id="p-p3xr87JfgVD6axUx0l-2" value="CloudWatch" style="whiteSpace=wrap;strokeWidth=2;fontSize=17;" vertex="1" parent="1">
          <mxGeometry x="873" y="148" width="100" height="34" as="geometry" />
        </mxCell>
        <mxCell id="p-p3xr87JfgVD6axUx0l-3" value="CloudTrail" style="whiteSpace=wrap;strokeWidth=2;fontSize=17;" vertex="1" parent="1">
          <mxGeometry x="805" y="1424" width="87" height="34" as="geometry" />
        </mxCell>
        <mxCell id="p-p3xr87JfgVD6axUx0l-4" value="SNS" style="whiteSpace=wrap;strokeWidth=2;fontSize=17;" vertex="1" parent="1">
          <mxGeometry x="874" y="231" width="42" height="34" as="geometry" />
        </mxCell>
        <mxCell id="p-p3xr87JfgVD6axUx0l-5" value="Reports &amp; Notifications" style="whiteSpace=wrap;strokeWidth=2;fontSize=17;" vertex="1" parent="1">
          <mxGeometry x="986" y="315" width="182" height="34" as="geometry" />
        </mxCell>
        <mxCell id="p-p3xr87JfgVD6axUx0l-6" value="Storage" style="whiteSpace=wrap;strokeWidth=2;verticalAlign=top;fontSize=17;" vertex="1" parent="1">
          <mxGeometry x="1223" y="1256" width="773" height="285" as="geometry" />
        </mxCell>
        <mxCell id="p-p3xr87JfgVD6axUx0l-7" value="S3 - Live Streams" style="whiteSpace=wrap;strokeWidth=2;fontSize=17;" vertex="1" parent="1">
          <mxGeometry x="1817" y="1281" width="139" height="34" as="geometry" />
        </mxCell>
        <mxCell id="p-p3xr87JfgVD6axUx0l-8" value="Archive Policy" style="rhombus;strokeWidth=2;whiteSpace=wrap;fontSize=17;" vertex="1" parent="1">
          <mxGeometry x="1811" y="1365" width="151" height="151" as="geometry" />
        </mxCell>
        <mxCell id="p-p3xr87JfgVD6axUx0l-9" value="Redshift-S3-DataWarehouse-Lake" style="whiteSpace=wrap;strokeWidth=2;fontSize=17;" vertex="1" parent="1">
          <mxGeometry x="1258" y="1281" width="251" height="34" as="geometry" />
        </mxCell>
        <mxCell id="p-p3xr87JfgVD6axUx0l-10" value="DynamoDB - Analytics Data" style="whiteSpace=wrap;strokeWidth=2;fontSize=17;" vertex="1" parent="1">
          <mxGeometry x="1559" y="1281" width="208" height="34" as="geometry" />
        </mxCell>
        <mxCell id="p-p3xr87JfgVD6axUx0l-11" value="Processing &amp; Analysis" style="whiteSpace=wrap;strokeWidth=2;verticalAlign=top;fontSize=17;" vertex="1" parent="1">
          <mxGeometry x="1343" y="955" width="647" height="251" as="geometry" />
        </mxCell>
        <mxCell id="p-p3xr87JfgVD6axUx0l-12" value="Apache Kafka" style="whiteSpace=wrap;strokeWidth=2;fontSize=17;" vertex="1" parent="1">
          <mxGeometry x="1606" y="980" width="114" height="34" as="geometry" />
        </mxCell>
        <mxCell id="p-p3xr87JfgVD6axUx0l-13" value="Facial Recognition" style="whiteSpace=wrap;strokeWidth=2;fontSize=17;" vertex="1" parent="1">
          <mxGeometry x="1590" y="1064" width="146" height="34" as="geometry" />
        </mxCell>
        <mxCell id="p-p3xr87JfgVD6axUx0l-14" value="Process &amp; Analyze" style="whiteSpace=wrap;strokeWidth=2;fontSize=17;" vertex="1" parent="1">
          <mxGeometry x="1591" y="1148" width="143" height="34" as="geometry" />
        </mxCell>
        <mxCell id="p-p3xr87JfgVD6axUx0l-15" value="Ingestion" style="whiteSpace=wrap;strokeWidth=2;verticalAlign=top;fontSize=17;" vertex="1" parent="1">
          <mxGeometry x="1408" y="654" width="384" height="251" as="geometry" />
        </mxCell>
        <mxCell id="p-p3xr87JfgVD6axUx0l-16" value="Kinesis Video Streams" style="whiteSpace=wrap;strokeWidth=2;fontSize=17;" vertex="1" parent="1">
          <mxGeometry x="1464" y="679" width="171" height="34" as="geometry" />
        </mxCell>
        <mxCell id="p-p3xr87JfgVD6axUx0l-17" value="Preprocess &amp; Transform" style="whiteSpace=wrap;strokeWidth=2;fontSize=17;" vertex="1" parent="1">
          <mxGeometry x="1457" y="763" width="184" height="34" as="geometry" />
        </mxCell>
        <mxCell id="p-p3xr87JfgVD6axUx0l-18" value="Kinesis Firehose" style="whiteSpace=wrap;strokeWidth=2;fontSize=17;" vertex="1" parent="1">
          <mxGeometry x="1536" y="846" width="129" height="34" as="geometry" />
        </mxCell>
        <mxCell id="p-p3xr87JfgVD6axUx0l-19" value="CCTV Cameras" style="whiteSpace=wrap;strokeWidth=2;verticalAlign=top;fontSize=17;" vertex="1" parent="1">
          <mxGeometry x="1397" y="520" width="190" height="84" as="geometry" />
        </mxCell>
        <mxCell id="p-p3xr87JfgVD6axUx0l-20" value="CCTV Cameras" style="whiteSpace=wrap;strokeWidth=2;fontSize=17;" vertex="1" parent="1">
          <mxGeometry x="1432" y="545" width="120" height="34" as="geometry" />
        </mxCell>
        <mxCell id="p-p3xr87JfgVD6axUx0l-21" value="Security Personnel" style="whiteSpace=wrap;strokeWidth=2;fontSize=17;" vertex="1" parent="1">
          <mxGeometry x="1418" y="418" width="147" height="34" as="geometry" />
        </mxCell>
        <mxCell id="p-p3xr87JfgVD6axUx0l-22" value="Administrators" style="whiteSpace=wrap;strokeWidth=2;fontSize=17;" vertex="1" parent="1">
          <mxGeometry x="1597" y="20" width="122" height="34" as="geometry" />
        </mxCell>
        <mxCell id="p-p3xr87JfgVD6axUx0l-23" value="External Systems" style="whiteSpace=wrap;strokeWidth=2;fontSize=17;" vertex="1" parent="1">
          <mxGeometry x="1232" y="20" width="137" height="34" as="geometry" />
        </mxCell>
        <mxCell id="p-p3xr87JfgVD6axUx0l-24" value="System" style="whiteSpace=wrap;strokeWidth=2;fontSize=17;" vertex="1" parent="1">
          <mxGeometry x="1338" y="148" width="66" height="34" as="geometry" />
        </mxCell>
        <mxCell id="p-p3xr87JfgVD6axUx0l-25" value="Monitors" style="curved=1;startArrow=none;endArrow=block;exitX=0.502575193132673;exitY=0.9779411764705882;entryX=0.49898794492085774;entryY=0;rounded=0;fontSize=17;" edge="1" parent="1" source="p-p3xr87JfgVD6axUx0l-21" target="p-p3xr87JfgVD6axUx0l-20">
          <mxGeometry relative="1" as="geometry">
            <Array as="points" />
          </mxGeometry>
        </mxCell>
        <mxCell id="p-p3xr87JfgVD6axUx0l-26" value="" style="curved=1;startArrow=none;endArrow=block;exitX=0.49898794492085774;exitY=0.9926470588235294;entryX=0.36357167392040474;entryY=-0.007352941176470588;rounded=0;fontSize=17;" edge="1" parent="1" source="p-p3xr87JfgVD6axUx0l-20" target="p-p3xr87JfgVD6axUx0l-16">
          <mxGeometry relative="1" as="geometry">
            <Array as="points">
              <mxPoint x="1492" y="654" />
            </Array>
          </mxGeometry>
        </mxCell>
        <mxCell id="p-p3xr87JfgVD6axUx0l-27" value="" style="curved=1;startArrow=none;endArrow=block;exitX=0.4989356325383772;exitY=0.9852941176470589;entryX=0.501728223717731;entryY=-0.014705882352941176;rounded=0;fontSize=17;" edge="1" parent="1" source="p-p3xr87JfgVD6axUx0l-16" target="p-p3xr87JfgVD6axUx0l-17">
          <mxGeometry relative="1" as="geometry">
            <Array as="points" />
          </mxGeometry>
        </mxCell>
        <mxCell id="p-p3xr87JfgVD6axUx0l-28" value="" style="curved=1;startArrow=none;endArrow=block;exitX=0.501728223717731;exitY=0.9779411764705882;entryX=0.3389890071185229;entryY=0.007352941176470588;rounded=0;fontSize=17;" edge="1" parent="1" source="p-p3xr87JfgVD6axUx0l-17" target="p-p3xr87JfgVD6axUx0l-18">
          <mxGeometry relative="1" as="geometry">
            <Array as="points">
              <mxPoint x="1549" y="821" />
            </Array>
          </mxGeometry>
        </mxCell>
        <mxCell id="p-p3xr87JfgVD6axUx0l-29" value="" style="curved=1;startArrow=none;endArrow=block;exitX=0.49811941339064014;exitY=1;entryX=0.27675279605822506;entryY=0;rounded=0;fontSize=17;" edge="1" parent="1" source="p-p3xr87JfgVD6axUx0l-18" target="p-p3xr87JfgVD6axUx0l-12">
          <mxGeometry relative="1" as="geometry">
            <Array as="points">
              <mxPoint x="1600" y="955" />
            </Array>
          </mxGeometry>
        </mxCell>
        <mxCell id="p-p3xr87JfgVD6axUx0l-30" value="" style="curved=1;startArrow=none;endArrow=block;exitX=0.49756314461691337;exitY=0.9926470588235294;entryX=0.498097249906357;entryY=-0.007352941176470588;rounded=0;fontSize=17;" edge="1" parent="1" source="p-p3xr87JfgVD6axUx0l-12" target="p-p3xr87JfgVD6axUx0l-13">
          <mxGeometry relative="1" as="geometry">
            <Array as="points" />
          </mxGeometry>
        </mxCell>
        <mxCell id="p-p3xr87JfgVD6axUx0l-31" value="" style="curved=1;startArrow=none;endArrow=block;exitX=0.498097249906357;exitY=0.9852941176470589;entryX=0.5015538355687281;entryY=-0.014705882352941176;rounded=0;fontSize=17;" edge="1" parent="1" source="p-p3xr87JfgVD6axUx0l-13" target="p-p3xr87JfgVD6axUx0l-14">
          <mxGeometry relative="1" as="geometry">
            <Array as="points" />
          </mxGeometry>
        </mxCell>
        <mxCell id="p-p3xr87JfgVD6axUx0l-32" value="" style="curved=1;startArrow=none;endArrow=block;exitX=1.0021543702879152;exitY=0.8763883271510755;entryX=0.49682018911238196;entryY=0.007352941176470588;rounded=0;fontSize=17;" edge="1" parent="1" source="p-p3xr87JfgVD6axUx0l-14" target="p-p3xr87JfgVD6axUx0l-7">
          <mxGeometry relative="1" as="geometry">
            <Array as="points">
              <mxPoint x="1886" y="1206" />
            </Array>
          </mxGeometry>
        </mxCell>
        <mxCell id="p-p3xr87JfgVD6axUx0l-33" value="" style="curved=1;startArrow=none;endArrow=block;exitX=0.0009533008495410839;exitY=0.7973039073741909;entryX=0.4997499017601469;entryY=0.007352941176470588;rounded=0;fontSize=17;" edge="1" parent="1" source="p-p3xr87JfgVD6axUx0l-14" target="p-p3xr87JfgVD6axUx0l-9">
          <mxGeometry relative="1" as="geometry">
            <Array as="points">
              <mxPoint x="1383" y="1206" />
            </Array>
          </mxGeometry>
        </mxCell>
        <mxCell id="p-p3xr87JfgVD6axUx0l-34" value="" style="curved=1;startArrow=none;endArrow=block;exitX=0.5015538355687281;exitY=0.9779411764705882;entryX=0.4986644157996544;entryY=0.007352941176470588;rounded=0;fontSize=17;" edge="1" parent="1" source="p-p3xr87JfgVD6axUx0l-14" target="p-p3xr87JfgVD6axUx0l-10">
          <mxGeometry relative="1" as="geometry">
            <Array as="points" />
          </mxGeometry>
        </mxCell>
        <mxCell id="p-p3xr87JfgVD6axUx0l-35" value="" style="curved=1;startArrow=none;endArrow=block;exitX=0.49682018911238196;exitY=1;entryX=0.49707288931537147;entryY=0;rounded=0;fontSize=17;" edge="1" parent="1" source="p-p3xr87JfgVD6axUx0l-7" target="p-p3xr87JfgVD6axUx0l-8">
          <mxGeometry relative="1" as="geometry">
            <Array as="points" />
          </mxGeometry>
        </mxCell>
        <mxCell id="p-p3xr87JfgVD6axUx0l-36" value="" style="curved=1;startArrow=none;endArrow=block;exitX=0.00031055587221426794;exitY=0.2199277568889182;entryX=0.16307815039335793;entryY=0.9779411764705882;rounded=0;fontSize=17;" edge="1" parent="1" source="p-p3xr87JfgVD6axUx0l-9" target="p-p3xr87JfgVD6axUx0l-2">
          <mxGeometry relative="1" as="geometry">
            <Array as="points">
              <mxPoint x="839" y="1256" />
              <mxPoint x="839" y="206" />
            </Array>
          </mxGeometry>
        </mxCell>
        <mxCell id="p-p3xr87JfgVD6axUx0l-37" value="" style="curved=1;startArrow=none;endArrow=block;exitX=0.4997499017601469;exitY=1;entryX=1.0028726862764907;entryY=0.24386279201449082;rounded=0;fontSize=17;" edge="1" parent="1" source="p-p3xr87JfgVD6axUx0l-9" target="p-p3xr87JfgVD6axUx0l-3">
          <mxGeometry relative="1" as="geometry">
            <Array as="points">
              <mxPoint x="1383" y="1340" />
            </Array>
          </mxGeometry>
        </mxCell>
        <mxCell id="p-p3xr87JfgVD6axUx0l-38" value="" style="curved=1;startArrow=none;endArrow=block;exitX=-0.0009783598092886119;exitY=0.3238435256737175;entryX=0.6130361574087569;entryY=0.9779411764705882;rounded=0;fontSize=17;" edge="1" parent="1" source="p-p3xr87JfgVD6axUx0l-10" target="p-p3xr87JfgVD6axUx0l-2">
          <mxGeometry relative="1" as="geometry">
            <Array as="points">
              <mxPoint x="951" y="1256" />
              <mxPoint x="951" y="206" />
            </Array>
          </mxGeometry>
        </mxCell>
        <mxCell id="p-p3xr87JfgVD6axUx0l-39" value="" style="curved=1;startArrow=none;endArrow=block;exitX=0.4986644157996544;exitY=1;entryX=1.0028726862764907;entryY=0.3265695941034424;rounded=0;fontSize=17;" edge="1" parent="1" source="p-p3xr87JfgVD6axUx0l-10" target="p-p3xr87JfgVD6axUx0l-3">
          <mxGeometry relative="1" as="geometry">
            <Array as="points">
              <mxPoint x="1663" y="1340" />
            </Array>
          </mxGeometry>
        </mxCell>
        <mxCell id="p-p3xr87JfgVD6axUx0l-40" value="" style="curved=1;startArrow=none;endArrow=block;exitX=0.38805715390105744;exitY=0.9779411764705882;entryX=0.5033477147420248;entryY=0.007352941176470588;rounded=0;fontSize=17;" edge="1" parent="1" source="p-p3xr87JfgVD6axUx0l-2" target="p-p3xr87JfgVD6axUx0l-4">
          <mxGeometry relative="1" as="geometry">
            <Array as="points">
              <mxPoint x="895" y="206" />
            </Array>
          </mxGeometry>
        </mxCell>
        <mxCell id="p-p3xr87JfgVD6axUx0l-41" value="" style="curved=1;startArrow=none;endArrow=block;exitX=0.44485647226001246;exitY=-0.011375876034007353;entryX=0.0074400220598493305;entryY=0.8419715899950454;rounded=0;fontSize=17;" edge="1" parent="1" source="p-p3xr87JfgVD6axUx0l-3" target="p-p3xr87JfgVD6axUx0l-4">
          <mxGeometry relative="1" as="geometry">
            <Array as="points">
              <mxPoint x="819" y="1340" />
              <mxPoint x="819" y="290" />
            </Array>
          </mxGeometry>
        </mxCell>
        <mxCell id="p-p3xr87JfgVD6axUx0l-42" value="" style="curved=1;startArrow=none;endArrow=block;exitX=0.9992554074242002;exitY=0.6447139585880254;entryX=0.5001282325157752;entryY=0;rounded=0;fontSize=17;" edge="1" parent="1" source="p-p3xr87JfgVD6axUx0l-4" target="p-p3xr87JfgVD6axUx0l-5">
          <mxGeometry relative="1" as="geometry">
            <Array as="points">
              <mxPoint x="1077" y="290" />
            </Array>
          </mxGeometry>
        </mxCell>
        <mxCell id="p-p3xr87JfgVD6axUx0l-43" value="Notifications" style="curved=1;startArrow=none;endArrow=block;exitX=0.5001282325157752;exitY=0.9926470588235294;entryX=0.001512631267106452;entryY=0.21399202602677458;rounded=0;fontSize=17;" edge="1" parent="1" source="p-p3xr87JfgVD6axUx0l-5" target="p-p3xr87JfgVD6axUx0l-21">
          <mxGeometry relative="1" as="geometry">
            <Array as="points">
              <mxPoint x="1077" y="383" />
            </Array>
          </mxGeometry>
        </mxCell>
        <mxCell id="p-p3xr87JfgVD6axUx0l-44" value="Configuration &amp; Management" style="curved=1;startArrow=none;endArrow=block;exitX=0.36003369800761315;exitY=0.9926470588235294;entryX=0.6342995911563496;entryY=-0.007352941176470588;rounded=0;fontSize=17;" edge="1" parent="1" source="p-p3xr87JfgVD6axUx0l-22" target="p-p3xr87JfgVD6axUx0l-16">
          <mxGeometry relative="1" as="geometry">
            <Array as="points">
              <mxPoint x="1607" y="88" />
              <mxPoint x="1607" y="654" />
            </Array>
          </mxGeometry>
        </mxCell>
        <mxCell id="p-p3xr87JfgVD6axUx0l-45" value="Configuration &amp; Management" style="curved=1;startArrow=none;endArrow=block;exitX=0.6999550994421572;exitY=0.9926470588235294;entryX=0.9118732572443219;entryY=0.007352941176470588;rounded=0;fontSize=17;" edge="1" parent="1" source="p-p3xr87JfgVD6axUx0l-22" target="p-p3xr87JfgVD6axUx0l-18">
          <mxGeometry relative="1" as="geometry">
            <Array as="points">
              <mxPoint x="1733" y="88" />
              <mxPoint x="1733" y="821" />
            </Array>
          </mxGeometry>
        </mxCell>
        <mxCell id="p-p3xr87JfgVD6axUx0l-46" value="Configuration &amp; Management" style="curved=1;startArrow=none;endArrow=block;exitX=0.9968743089769707;exitY=0.8378555373930889;entryX=0.9956781153093305;entryY=0.23126137648950576;rounded=0;fontSize=17;" edge="1" parent="1" source="p-p3xr87JfgVD6axUx0l-22" target="p-p3xr87JfgVD6axUx0l-12">
          <mxGeometry relative="1" as="geometry">
            <Array as="points">
              <mxPoint x="1927" y="88" />
              <mxPoint x="1927" y="955" />
            </Array>
          </mxGeometry>
        </mxCell>
        <mxCell id="p-p3xr87JfgVD6axUx0l-47" value="Configuration &amp; Management" style="curved=1;startArrow=none;endArrow=block;exitX=-0.0018440778138207607;exitY=0.6213240938293584;entryX=0.5005466556549072;entryY=-0.014705882352941176;rounded=0;fontSize=17;" edge="1" parent="1" source="p-p3xr87JfgVD6axUx0l-22" target="p-p3xr87JfgVD6axUx0l-2">
          <mxGeometry relative="1" as="geometry">
            <Array as="points">
              <mxPoint x="923" y="88" />
            </Array>
          </mxGeometry>
        </mxCell>
        <mxCell id="p-p3xr87JfgVD6axUx0l-48" value="Integration" style="curved=1;startArrow=none;endArrow=block;exitX=0.8674012541717027;exitY=-0.014705882352941176;entryX=0.815017377606528;entryY=0.9926470588235294;rounded=0;fontSize=17;" edge="1" parent="1" source="p-p3xr87JfgVD6axUx0l-24" target="p-p3xr87JfgVD6axUx0l-23">
          <mxGeometry relative="1" as="geometry">
            <Array as="points">
              <mxPoint x="1431" y="123" />
              <mxPoint x="1431" y="88" />
            </Array>
          </mxGeometry>
        </mxCell>
        <mxCell id="p-p3xr87JfgVD6axUx0l-49" value="Requests &amp; Data" style="curved=1;startArrow=none;endArrow=block;exitX=0.5308321636513031;exitY=0.9926470588235294;entryX=0.14543456634424784;entryY=-0.014705882352941176;rounded=0;fontSize=17;" edge="1" parent="1" source="p-p3xr87JfgVD6axUx0l-23" target="p-p3xr87JfgVD6axUx0l-24">
          <mxGeometry relative="1" as="geometry">
            <Array as="points">
              <mxPoint x="1312" y="88" />
              <mxPoint x="1312" y="123" />
            </Array>
          </mxGeometry>
        </mxCell>
      </root>
    </mxGraphModel>
  </diagram>
  <diagram id="UELSkSkWJvssPYcNerWj" name="Page-8">
    <mxGraphModel grid="1" page="1" gridSize="10" guides="1" tooltips="1" connect="1" arrows="1" fold="1" pageScale="1" pageWidth="850" pageHeight="1100" math="0" shadow="0">
      <root>
        <mxCell id="0" />
        <mxCell id="1" parent="0" />
      </root>
    </mxGraphModel>
  </diagram>
</mxfile>
